<svg xmlns="http://www.w3.org/2000/svg" width="500" height="500" version="1.0" viewBox="0 0 375 375"><defs><clipPath id="a"><path d="M316 133h59v116h-59Zm0 0"/></clipPath><clipPath id="b"><path d="m301.48 147.57 122.04-28.18 24.972 108.153-122.035 28.18Zm0 0"/></clipPath><clipPath id="c"><path d="m301.48 147.57 122.04-28.18 24.972 108.153-122.035 28.18Zm0 0"/></clipPath><clipPath id="d"><path d="M0 133h54v116H0Zm0 0"/></clipPath><clipPath id="e"><path d="m-73.52 147.57 122.04-28.18 24.972 108.153-122.035 28.18Zm0 0"/></clipPath><clipPath id="f"><path d="m-73.52 147.57 122.04-28.18 24.972 108.153-122.035 28.18Zm0 0"/></clipPath><clipPath id="g"><path d="M129 320h112v55H129Zm0 0"/></clipPath><clipPath id="h"><path d="m113.98 335.07 122.04-28.18 24.972 108.153-122.035 28.18Zm0 0"/></clipPath><clipPath id="i"><path d="m113.98 335.07 122.04-28.18 24.972 108.153-122.035 28.18Zm0 0"/></clipPath><clipPath id="j"><path d="M129 0h112v62H129Zm0 0"/></clipPath><clipPath id="k"><path d="m113.98-39.93 122.04-28.18 24.972 108.153-122.035 28.18Zm0 0"/></clipPath><clipPath id="l"><path d="m113.98-39.93 122.04-28.18 24.972 108.153-122.035 28.18Zm0 0"/></clipPath></defs><g clip-path="url(#a)"><g clip-path="url(#b)"><g clip-path="url(#c)"><path fill="#fff" d="M369.496 135.863c-1.652-2.062-4.36-2.992-6.953-2.394a6.935 6.935 0 0 0-5.2 5.203l-7.12 31.05-29.27 11.47c-2.445.964-4.144 3.226-4.367 5.831-.219 2.61 1.031 5.141 3.262 6.516l27.011 16.68 1.91 31.941a6.95 6.95 0 0 0 4.247 5.977 6.98 6.98 0 0 0 7.242-1.16l23.738-20.707 30.41 8.203c2.555.675 5.281-.133 7.02-2.133a6.97 6.97 0 0 0 1.195-7.235l-12.308-29.539 16.96-26.836a6.916 6.916 0 0 0 .075-7.285 6.938 6.938 0 0 0-6.48-3.324l-31.356 2.527Zm0 0"/></g></g></g><g clip-path="url(#d)"><g clip-path="url(#e)"><g clip-path="url(#f)"><path fill="#fff" d="M-5.504 135.863c-1.652-2.062-4.36-2.992-6.953-2.394a6.935 6.935 0 0 0-5.2 5.203l-7.12 31.05-29.27 11.47c-2.445.964-4.144 3.226-4.367 5.831-.219 2.61 1.031 5.141 3.262 6.516l27.011 16.68 1.91 31.941a6.95 6.95 0 0 0 4.247 5.977 6.98 6.98 0 0 0 7.242-1.16L8.996 226.27l30.41 8.203c2.555.675 5.282-.133 7.02-2.133a6.97 6.97 0 0 0 1.195-7.235l-12.309-29.539 16.961-26.836a6.916 6.916 0 0 0 .075-7.285 6.938 6.938 0 0 0-6.48-3.324l-31.356 2.527Zm0 0"/></g></g></g><g clip-path="url(#g)"><g clip-path="url(#h)"><g clip-path="url(#i)"><path fill="#fff" d="M181.996 323.363c-1.652-2.062-4.36-2.992-6.953-2.394a6.935 6.935 0 0 0-5.2 5.203l-7.12 31.05-29.27 11.47c-2.445.964-4.144 3.226-4.367 5.831-.219 2.61 1.031 5.141 3.262 6.516l27.011 16.68 1.91 31.941a6.95 6.95 0 0 0 4.247 5.977 6.98 6.98 0 0 0 7.242-1.16l23.738-20.707 30.41 8.203c2.555.675 5.281-.133 7.02-2.133a6.97 6.97 0 0 0 1.195-7.235l-12.309-29.539 16.961-26.836a6.916 6.916 0 0 0 .075-7.285 6.938 6.938 0 0 0-6.48-3.324l-31.356 2.527Zm0 0"/></g></g></g><g clip-path="url(#j)"><g clip-path="url(#k)"><g clip-path="url(#l)"><path fill="#fff" d="M181.996-51.637c-1.652-2.062-4.36-2.992-6.953-2.394a6.935 6.935 0 0 0-5.2 5.203l-7.12 31.05-29.27 11.47c-2.445.964-4.144 3.226-4.367 5.831-.219 2.61 1.031 5.141 3.262 6.516l27.011 16.68 1.91 31.941a6.95 6.95 0 0 0 4.247 5.977 6.98 6.98 0 0 0 7.242-1.16l23.738-20.707 30.41 8.203c2.555.675 5.281-.133 7.02-2.133a6.97 6.97 0 0 0 1.195-7.235L222.812 8.066l16.961-26.836a6.916 6.916 0 0 0 .075-7.285 6.938 6.938 0 0 0-6.48-3.324l-31.356 2.527Zm0 0"/></g></g></g></svg>